<svg xmlns="http://www.w3.org/2000/svg" viewBox="0 0 64 64" width="64" height="64">
  <rect width="64" height="64" rx="12" fill="#0a0a0a"/>
  <path d="M22 14c-4 0-7 1-9 3-2 2-3 5-3 9v4c0 3-1 5-2 6-1 1-2 1-3 1v4c1 0 2 0 3 1 1 1 2 3 2 6v4c0 4 1 7 3 9 2 2 5 3 9 3h2v-5h-2c-2 0-3-1-4-2-1-1-1-3-1-5v-4c0-3-1-5-2-7-1-1-2-2-3-3 1-1 2-2 3-3 1-2 2-4 2-7v-4c0-2 0-4 1-5 1-1 2-2 4-2h2v-5h-2z" fill="#10b981"/>
  <path d="M42 14c4 0 7 1 9 3 2 2 3 5 3 9v4c0 3 1 5 2 6 1 1 2 1 3 1v4c-1 0-2 0-3 1-1 1-2 3-2 6v4c0 4-1 7-3 9-2 2-5 3-9 3h-2v-5h2c2 0 3-1 4-2 1-1 1-3 1-5v-4c0-3 1-5 2-7 1-1 2-2 3-3-1-1-2-2-3-3-1-2-2-4-2-7v-4c0-2 0-4-1-5-1-1-2-2-4-2h-2v-5h2z" fill="#10b981"/>
</svg>
